<mxfile host="app.diagrams.net" modified="2022-11-08T10:28:23.783Z" agent="5.0 (Windows NT 10.0; Win64; x64) AppleWebKit/537.36 (KHTML, like Gecko) Chrome/105.0.0.0 Safari/537.36 OPR/91.0.4516.106" etag="XxpYpc-wQbLGKkuaOc5L" version="20.5.3" type="github">
  <diagram id="C5RBs43oDa-KdzZeNtuy" name="Page-1">
    <mxGraphModel dx="1141" dy="775" grid="1" gridSize="10" guides="1" tooltips="1" connect="1" arrows="1" fold="1" page="1" pageScale="1" pageWidth="827" pageHeight="1169" math="0" shadow="0">
      <root>
        <mxCell id="WIyWlLk6GJQsqaUBKTNV-0" />
        <mxCell id="WIyWlLk6GJQsqaUBKTNV-1" parent="WIyWlLk6GJQsqaUBKTNV-0" />
        <mxCell id="u5tL2hUtAfJTK3kxWCVC-52" value="" style="endArrow=classic;html=1;rounded=0;exitX=1;exitY=0.5;exitDx=0;exitDy=0;" edge="1" parent="WIyWlLk6GJQsqaUBKTNV-1">
          <mxGeometry width="50" height="50" relative="1" as="geometry">
            <mxPoint x="290" y="285" as="sourcePoint" />
            <mxPoint x="250" y="340" as="targetPoint" />
            <Array as="points">
              <mxPoint x="250" y="285" />
              <mxPoint x="250" y="340" />
            </Array>
          </mxGeometry>
        </mxCell>
        <mxCell id="WIyWlLk6GJQsqaUBKTNV-3" value="Κομπιουτερακι" style="rounded=1;whiteSpace=wrap;html=1;fontSize=12;glass=0;strokeWidth=1;shadow=0;" parent="WIyWlLk6GJQsqaUBKTNV-1" vertex="1">
          <mxGeometry x="270" y="80" width="180" height="40" as="geometry" />
        </mxCell>
        <mxCell id="u5tL2hUtAfJTK3kxWCVC-30" value="" style="shape=flexArrow;endArrow=classic;html=1;rounded=0;" edge="1" parent="WIyWlLk6GJQsqaUBKTNV-1">
          <mxGeometry width="50" height="50" relative="1" as="geometry">
            <mxPoint x="359.5" y="120" as="sourcePoint" />
            <mxPoint x="359.5" y="190" as="targetPoint" />
          </mxGeometry>
        </mxCell>
        <mxCell id="u5tL2hUtAfJTK3kxWCVC-31" value="Εισαγωγη αριθμων" style="rounded=0;whiteSpace=wrap;html=1;" vertex="1" parent="WIyWlLk6GJQsqaUBKTNV-1">
          <mxGeometry x="300" y="190" width="120" height="30" as="geometry" />
        </mxCell>
        <mxCell id="u5tL2hUtAfJTK3kxWCVC-33" value="Ειναι παραπανω απο 2 οι αριθμοι?" style="rounded=0;whiteSpace=wrap;html=1;" vertex="1" parent="WIyWlLk6GJQsqaUBKTNV-1">
          <mxGeometry x="290" y="270" width="140" height="30" as="geometry" />
        </mxCell>
        <mxCell id="u5tL2hUtAfJTK3kxWCVC-34" value="" style="shape=flexArrow;endArrow=classic;html=1;rounded=0;" edge="1" parent="WIyWlLk6GJQsqaUBKTNV-1">
          <mxGeometry width="50" height="50" relative="1" as="geometry">
            <mxPoint x="360" y="220" as="sourcePoint" />
            <mxPoint x="360" y="270" as="targetPoint" />
          </mxGeometry>
        </mxCell>
        <mxCell id="u5tL2hUtAfJTK3kxWCVC-35" value="" style="endArrow=classic;html=1;rounded=0;exitX=1;exitY=0.5;exitDx=0;exitDy=0;" edge="1" parent="WIyWlLk6GJQsqaUBKTNV-1" source="u5tL2hUtAfJTK3kxWCVC-33">
          <mxGeometry width="50" height="50" relative="1" as="geometry">
            <mxPoint x="430" y="284.5" as="sourcePoint" />
            <mxPoint x="470" y="340" as="targetPoint" />
            <Array as="points">
              <mxPoint x="470" y="285" />
              <mxPoint x="470" y="340" />
            </Array>
          </mxGeometry>
        </mxCell>
        <mxCell id="u5tL2hUtAfJTK3kxWCVC-36" value="NAI" style="text;html=1;align=center;verticalAlign=middle;resizable=0;points=[];autosize=1;strokeColor=none;fillColor=none;" vertex="1" parent="WIyWlLk6GJQsqaUBKTNV-1">
          <mxGeometry x="430" y="260" width="40" height="30" as="geometry" />
        </mxCell>
        <mxCell id="u5tL2hUtAfJTK3kxWCVC-38" value="H πραξη δεν μπορει να γινει" style="rounded=0;whiteSpace=wrap;html=1;" vertex="1" parent="WIyWlLk6GJQsqaUBKTNV-1">
          <mxGeometry x="420" y="340" width="110" height="50" as="geometry" />
        </mxCell>
        <mxCell id="u5tL2hUtAfJTK3kxWCVC-63" style="edgeStyle=orthogonalEdgeStyle;rounded=0;orthogonalLoop=1;jettySize=auto;html=1;exitX=1;exitY=0.5;exitDx=0;exitDy=0;" edge="1" parent="WIyWlLk6GJQsqaUBKTNV-1" source="u5tL2hUtAfJTK3kxWCVC-53" target="u5tL2hUtAfJTK3kxWCVC-61">
          <mxGeometry relative="1" as="geometry" />
        </mxCell>
        <mxCell id="u5tL2hUtAfJTK3kxWCVC-53" value="Υπαρξη διαρεσης με 0;" style="rounded=0;whiteSpace=wrap;html=1;" vertex="1" parent="WIyWlLk6GJQsqaUBKTNV-1">
          <mxGeometry x="210" y="340" width="80" height="40" as="geometry" />
        </mxCell>
        <mxCell id="u5tL2hUtAfJTK3kxWCVC-54" value="ΟΧΙ" style="text;html=1;align=center;verticalAlign=middle;resizable=0;points=[];autosize=1;strokeColor=none;fillColor=none;" vertex="1" parent="WIyWlLk6GJQsqaUBKTNV-1">
          <mxGeometry x="250" y="260" width="40" height="30" as="geometry" />
        </mxCell>
        <mxCell id="u5tL2hUtAfJTK3kxWCVC-55" value="" style="endArrow=classic;html=1;rounded=0;exitX=1;exitY=0.5;exitDx=0;exitDy=0;" edge="1" parent="WIyWlLk6GJQsqaUBKTNV-1">
          <mxGeometry width="50" height="50" relative="1" as="geometry">
            <mxPoint x="210" y="360" as="sourcePoint" />
            <mxPoint x="170" y="415" as="targetPoint" />
            <Array as="points">
              <mxPoint x="170" y="360" />
              <mxPoint x="170" y="415" />
            </Array>
          </mxGeometry>
        </mxCell>
        <mxCell id="u5tL2hUtAfJTK3kxWCVC-56" value="NAI" style="text;html=1;align=center;verticalAlign=middle;resizable=0;points=[];autosize=1;strokeColor=none;fillColor=none;" vertex="1" parent="WIyWlLk6GJQsqaUBKTNV-1">
          <mxGeometry x="170" y="330" width="40" height="30" as="geometry" />
        </mxCell>
        <mxCell id="u5tL2hUtAfJTK3kxWCVC-57" value="H πραξη δεν μπορει να γινει" style="rounded=0;whiteSpace=wrap;html=1;" vertex="1" parent="WIyWlLk6GJQsqaUBKTNV-1">
          <mxGeometry x="120" y="420" width="110" height="50" as="geometry" />
        </mxCell>
        <mxCell id="u5tL2hUtAfJTK3kxWCVC-60" value="ΟΧΙ" style="text;html=1;align=center;verticalAlign=middle;resizable=0;points=[];autosize=1;strokeColor=none;fillColor=none;" vertex="1" parent="WIyWlLk6GJQsqaUBKTNV-1">
          <mxGeometry x="300" y="330" width="40" height="30" as="geometry" />
        </mxCell>
        <mxCell id="u5tL2hUtAfJTK3kxWCVC-61" value="&lt;b&gt;Το κομπιουτερακι λειτουργει κανονικα&lt;/b&gt;" style="shape=parallelogram;perimeter=parallelogramPerimeter;whiteSpace=wrap;html=1;fixedSize=1;" vertex="1" parent="WIyWlLk6GJQsqaUBKTNV-1">
          <mxGeometry x="260" y="415" width="190" height="60" as="geometry" />
        </mxCell>
      </root>
    </mxGraphModel>
  </diagram>
</mxfile>
